<svg width="18" height="18" viewBox="0 0 18 18" fill="none" xmlns="http://www.w3.org/2000/svg">
<g id="ep:arrow-down">
<path id="Vector" d="M6.21503 3.79369L11.29 8.99994L6.21503 14.2062C6.12417 14.2992 6.07331 14.4241 6.07331 14.5541C6.07331 14.6841 6.12417 14.809 6.21503 14.902C6.25916 14.9471 6.31183 14.9828 6.36996 15.0073C6.42809 15.0317 6.49052 15.0443 6.55357 15.0443C6.61663 15.0443 6.67905 15.0317 6.73718 15.0073C6.79531 14.9828 6.84798 14.9471 6.89211 14.902L12.2921 9.36348C12.3869 9.26622 12.44 9.13576 12.44 8.99994C12.44 8.86411 12.3869 8.73366 12.2921 8.6364L6.89315 3.09785C6.84899 3.0525 6.79619 3.01645 6.73787 2.99183C6.67954 2.96721 6.61688 2.95453 6.55357 2.95453C6.49026 2.95453 6.4276 2.96721 6.36928 2.99183C6.31095 3.01645 6.25815 3.0525 6.21399 3.09785C6.12313 3.19087 6.07227 3.31574 6.07227 3.44577C6.07227 3.5758 6.12313 3.70067 6.21399 3.79369H6.21503Z" fill="#323232"/>
</g>
</svg>
