<svg width="18" height="18" viewBox="0 0 18 18" fill="none" xmlns="http://www.w3.org/2000/svg">
<g id="ep:arrow-down">
<path id="Vector" d="M11.785 14.2063L6.70997 9.00006L11.785 3.79381C11.8758 3.70079 11.9267 3.57592 11.9267 3.44589C11.9267 3.31586 11.8758 3.19099 11.785 3.09798C11.7408 3.05294 11.6882 3.01716 11.63 2.99273C11.5719 2.9683 11.5095 2.95572 11.4464 2.95572C11.3834 2.95572 11.321 2.9683 11.2628 2.99273C11.2047 3.01716 11.152 3.05294 11.1079 3.09798L5.70789 8.63652C5.61308 8.73378 5.56002 8.86424 5.56002 9.00006C5.56002 9.13589 5.61308 9.26634 5.70789 9.3636L11.1068 14.9021C11.151 14.9475 11.2038 14.9836 11.2621 15.0082C11.3205 15.0328 11.3831 15.0455 11.4464 15.0455C11.5097 15.0455 11.5724 15.0328 11.6307 15.0082C11.689 14.9836 11.7419 14.9475 11.786 14.9021C11.8769 14.8091 11.9277 14.6843 11.9277 14.5542C11.9277 14.4242 11.8769 14.2993 11.786 14.2063H11.785Z" fill="#323232"/>
</g>
</svg>
